<?xml version="1.0" encoding="UTF-8" standalone="no"?>
<!-- Created with Inkscape (http://www.inkscape.org/) -->

<svg
   xmlns:dc="http://purl.org/dc/elements/1.1/"
   xmlns:cc="http://creativecommons.org/ns#"
   xmlns:rdf="http://www.w3.org/1999/02/22-rdf-syntax-ns#"
   xmlns:svg="http://www.w3.org/2000/svg"
   xmlns="http://www.w3.org/2000/svg"
   xmlns:sodipodi="http://sodipodi.sourceforge.net/DTD/sodipodi-0.dtd"
   xmlns:inkscape="http://www.inkscape.org/namespaces/inkscape"
   width="211"
   height="161"
   id="svg2"
   version="1.1"
   inkscape:version="0.48.4 r9939"
   sodipodi:docname="icycon.svg">
  <defs
     id="defs4" />
  <sodipodi:namedview
     id="base"
     pagecolor="#ffffff"
     bordercolor="#666666"
     borderopacity="1.0"
     inkscape:pageopacity="0.0"
     inkscape:pageshadow="2"
     inkscape:zoom="1"
     inkscape:cx="345.5"
     inkscape:cy="-61.336909"
     inkscape:document-units="px"
     inkscape:current-layer="layer1"
     showgrid="true"
     inkscape:snap-bbox="true"
     inkscape:snap-grids="true"
     inkscape:window-width="931"
     inkscape:window-height="765"
     inkscape:window-x="1329"
     inkscape:window-y="24"
     inkscape:window-maximized="0"
     fit-margin-top="5"
     fit-margin-left="5"
     fit-margin-right="5"
     fit-margin-bottom="5">
    <inkscape:grid
       type="xygrid"
       id="grid2989"
       empspacing="5"
       visible="true"
       enabled="true"
       snapvisiblegridlinesonly="true"
       originx="-4.5px"
       originy="-884.48718px" />
  </sodipodi:namedview>
  <metadata
     id="metadata7">
    <rdf:RDF>
      <cc:Work
         rdf:about="">
        <dc:format>image/svg+xml</dc:format>
        <dc:type
           rdf:resource="http://purl.org/dc/dcmitype/StillImage" />
        <dc:title></dc:title>
      </cc:Work>
    </rdf:RDF>
  </metadata>
  <g
     inkscape:label="Ebene 1"
     inkscape:groupmode="layer"
     id="layer1"
     transform="translate(-4.5,-6.875)">
    <g
       id="g3054">
      <path
         style="fill:#ffffff;stroke:#000000"
         d="m 10,12.362183 c 66.666667,0 133.33333,0 200,0 0,50 0,99.999997 0,149.999997 -66.66667,0 -133.333333,0 -200,0 0,-50 0,-99.999997 0,-149.999997 z"
         id="rect2993"
         inkscape:connector-curvature="0" />
      <path
         style="fill:none;stroke:#000000;stroke-width:1px;stroke-linecap:butt;stroke-linejoin:miter;stroke-opacity:1"
         d="m 10,32.362183 c 66.666667,0 133.33333,0 200,0"
         id="path2995"
         inkscape:connector-curvature="0" />
      <path
         style="fill:none;stroke:#000000;stroke-width:1px;stroke-linecap:butt;stroke-linejoin:miter;stroke-opacity:1"
         d="m 30,12.362183 c 0,6.666667 0,13.333333 0,20"
         id="path2997"
         inkscape:connector-curvature="0" />
      <path
         style="fill:none;stroke:#000000;stroke-width:1px;stroke-linecap:butt;stroke-linejoin:miter;stroke-opacity:1"
         d="m 190,12.362183 c 0,6.666667 0,13.333333 0,20"
         id="path2999"
         inkscape:connector-curvature="0" />
      <path
         style="fill:#f9f9f9;stroke:#000000;stroke-width:1px;stroke-linecap:butt;stroke-linejoin:miter;stroke-opacity:1"
         d="m 170,12.362183 c 0,6.666667 0,13.333333 0,20"
         id="path3001"
         inkscape:connector-curvature="0" />
      <path
         style="fill:#e6e6e6;stroke:#000000"
         d="m 11.2,97.811909 c 0,-21.333333 0,-42.666667 0,-64 66,0 132,0 198,0 0,42.666667 0,85.333331 0,128.000001 -66,0 -132,0 -198,0 0,-21.33333 0,-42.66667 0,-64.000001 z"
         id="path3003"
         inkscape:connector-curvature="0" />
      <path
         style="fill:#e6e6e6;stroke:#000000"
         d="m 12.2,97.811909 c 0,-21 0,-42 0,-63 65.333333,0 130.66667,0 196,0 0,42 0,84.000001 0,126.000001 -65.33333,0 -130.666667,0 -196,0 0,-21 0,-42 0,-63.000001 z"
         id="path3005"
         inkscape:connector-curvature="0" />
      <path
         style="fill:#4d4d4d;stroke:#000000"
         d="m 31.2,22.811909 c 0.3334,-2.8342 -0.66834,-7.00354 0.5028,-9 45.8324,0 91.6648,0 137.4972,0 0,6 0,12 0,18 -46,0 -92,0 -138,0 0,-3 0,-6 0,-9 z"
         id="path3007"
         inkscape:connector-curvature="0" />
      <path
         style="fill:#808080;stroke:#000000"
         d="m 171.2,22.811909 c 0.3334,-2.8342 -0.66834,-7.00354 0.5028,-9 5.8324,0 11.6648,0 17.4972,0 0,6 0,12 0,18 -6,0 -12,0 -18,0 0,-3 0,-6 0,-9 z"
         id="path3009"
         inkscape:connector-curvature="0" />
      <path
         style="fill:#808080;stroke:#000000"
         d="m 191.2,22.811909 c 0.3334,-2.8342 -0.66834,-7.00354 0.5028,-9 5.8324,0 11.6648,0 17.4972,0 0,6 0,12 0,18 -6,0 -12,0 -18,0 0,-3 0,-6 0,-9 z"
         id="path3011"
         inkscape:connector-curvature="0" />
      <path
         style="fill:#808080;stroke:#000000"
         d="m 11.2,22.811909 c 0.3334,-2.8342 -0.66834,-7.00354 0.5028,-9 5.8324,0 11.6648,0 17.4972,0 0,6 0,12 0,18 -6,0 -12,0 -18,0 0,-3 0,-6 0,-9 z"
         id="path3013"
         inkscape:connector-curvature="0" />
      <path
         style="fill:#000000;stroke:#000000"
         d="m 149.5,136.86218 c 0.5658,11.54384 -14.12976,19.36 -23.38664,12.43824 -9.79456,-5.94471 -8.20332,-22.30597 2.54796,-26.25946 9.52203,-4.32637 21.1214,3.35325 20.83868,13.82122 z"
         id="path3021"
         inkscape:connector-curvature="0" />
      <path
         style="fill:#000000;stroke:#000000"
         d="m 89.5,116.86218 c 0.5658,11.54384 -14.129755,19.36 -23.386643,12.43824 -9.794555,-5.94471 -8.203321,-22.30597 2.547966,-26.25946 9.522028,-4.326369 21.121397,3.35325 20.838677,13.82122 z"
         id="path3023"
         inkscape:connector-curvature="0" />
      <path
         style="fill:#000000;stroke:#000000"
         d="m 80,62.362183 c 3.333333,0 6.666667,0 10,0 0,16.666666 0,33.333333 0,49.999997 -3.333333,0 -6.666667,0 -10,0 0,-16.666664 0,-33.333331 0,-49.999997 z"
         id="rect3025"
         inkscape:connector-curvature="0" />
      <path
         style="fill:#000000;stroke:#000000"
         d="m 140,82.362183 c 3.33333,0 6.66667,0 10,0 0,16.666666 0,33.333337 0,49.999997 -3.33333,0 -6.66667,0 -10,0 0,-16.66666 0,-33.333331 0,-49.999997 z"
         id="rect3027"
         inkscape:connector-curvature="0" />
      <path
         style="fill:#000000;stroke:#000000;stroke-width:1px;stroke-linecap:butt;stroke-linejoin:miter;stroke-opacity:1"
         d="m 80,52.362183 c 23.33333,6.666667 46.66667,13.333333 70,20 0,6.666667 0,13.333333 0,20 -23.33333,-6.666667 -46.66667,-13.333333 -70,-20 0,-6.666667 0,-13.333333 0,-20 z"
         id="path3033"
         inkscape:connector-curvature="0" />
    </g>
  </g>
</svg>
